<mxfile host="drawio-plugin" modified="2023-08-10T10:09:12.260Z" agent="5.0 (X11; Linux x86_64) AppleWebKit/537.36 (KHTML, like Gecko) Chrome/111.0.0.0 Safari/537.36" version="20.5.3" etag="UrQ-LmKb8r5hn7d_VrdD" type="embed"><diagram id="pbAPCi2-Wgk4IRF2BtqO" name="Page-1"><mxGraphModel dx="1047" dy="741" grid="1" gridSize="10" guides="1" tooltips="1" connect="1" arrows="1" fold="1" page="1" pageScale="1" pageWidth="827" pageHeight="1169" math="0" shadow="0"><root><mxCell id="0"/><mxCell id="1" parent="0"/><mxCell id="2" value="User" style="swimlane;fontStyle=0;childLayout=stackLayout;horizontal=1;startSize=26;fillColor=none;horizontalStack=0;resizeParent=1;resizeParentMax=0;resizeLast=0;collapsible=1;marginBottom=0;" vertex="1" parent="1"><mxGeometry x="130" y="200" width="140" height="182" as="geometry"/></mxCell><mxCell id="3" value="+ id : Int&#10; &#10;" style="text;strokeColor=none;fillColor=none;align=left;verticalAlign=top;spacingLeft=4;spacingRight=4;overflow=hidden;rotatable=0;points=[[0,0.5],[1,0.5]];portConstraint=eastwest;" vertex="1" parent="2"><mxGeometry y="26" width="140" height="26" as="geometry"/></mxCell><mxCell id="4" value="+ username: string" style="text;strokeColor=none;fillColor=none;align=left;verticalAlign=top;spacingLeft=4;spacingRight=4;overflow=hidden;rotatable=0;points=[[0,0.5],[1,0.5]];portConstraint=eastwest;" vertex="1" parent="2"><mxGeometry y="52" width="140" height="26" as="geometry"/></mxCell><mxCell id="5" value="+ email: string" style="text;strokeColor=none;fillColor=none;align=left;verticalAlign=top;spacingLeft=4;spacingRight=4;overflow=hidden;rotatable=0;points=[[0,0.5],[1,0.5]];portConstraint=eastwest;" vertex="1" parent="2"><mxGeometry y="78" width="140" height="26" as="geometry"/></mxCell><mxCell id="6" value="+ password: string" style="text;strokeColor=none;fillColor=none;align=left;verticalAlign=top;spacingLeft=4;spacingRight=4;overflow=hidden;rotatable=0;points=[[0,0.5],[1,0.5]];portConstraint=eastwest;" vertex="1" parent="2"><mxGeometry y="104" width="140" height="26" as="geometry"/></mxCell><mxCell id="7" value="+ roles" style="text;strokeColor=none;fillColor=none;align=left;verticalAlign=top;spacingLeft=4;spacingRight=4;overflow=hidden;rotatable=0;points=[[0,0.5],[1,0.5]];portConstraint=eastwest;" vertex="1" parent="2"><mxGeometry y="130" width="140" height="26" as="geometry"/></mxCell><mxCell id="35" value="+ createdAt: datetime" style="text;strokeColor=none;fillColor=none;align=left;verticalAlign=top;spacingLeft=4;spacingRight=4;overflow=hidden;rotatable=0;points=[[0,0.5],[1,0.5]];portConstraint=eastwest;" vertex="1" parent="2"><mxGeometry y="156" width="140" height="26" as="geometry"/></mxCell><mxCell id="8" value="Trick" style="swimlane;fontStyle=0;childLayout=stackLayout;horizontal=1;startSize=26;fillColor=none;horizontalStack=0;resizeParent=1;resizeParentMax=0;resizeLast=0;collapsible=1;marginBottom=0;" vertex="1" parent="1"><mxGeometry x="360" y="370" width="140" height="182" as="geometry"/></mxCell><mxCell id="9" value="+ Id: int" style="text;strokeColor=none;fillColor=none;align=left;verticalAlign=top;spacingLeft=4;spacingRight=4;overflow=hidden;rotatable=0;points=[[0,0.5],[1,0.5]];portConstraint=eastwest;" vertex="1" parent="8"><mxGeometry y="26" width="140" height="26" as="geometry"/></mxCell><mxCell id="10" value="+ name: string" style="text;strokeColor=none;fillColor=none;align=left;verticalAlign=top;spacingLeft=4;spacingRight=4;overflow=hidden;rotatable=0;points=[[0,0.5],[1,0.5]];portConstraint=eastwest;" vertex="1" parent="8"><mxGeometry y="52" width="140" height="26" as="geometry"/></mxCell><mxCell id="11" value="+ title: string" style="text;strokeColor=none;fillColor=none;align=left;verticalAlign=top;spacingLeft=4;spacingRight=4;overflow=hidden;rotatable=0;points=[[0,0.5],[1,0.5]];portConstraint=eastwest;" vertex="1" parent="8"><mxGeometry y="78" width="140" height="26" as="geometry"/></mxCell><mxCell id="12" value="+ description: text" style="text;strokeColor=none;fillColor=none;align=left;verticalAlign=top;spacingLeft=4;spacingRight=4;overflow=hidden;rotatable=0;points=[[0,0.5],[1,0.5]];portConstraint=eastwest;" vertex="1" parent="8"><mxGeometry y="104" width="140" height="26" as="geometry"/></mxCell><mxCell id="13" value="+ createdAt: DateTime" style="text;strokeColor=none;fillColor=none;align=left;verticalAlign=top;spacingLeft=4;spacingRight=4;overflow=hidden;rotatable=0;points=[[0,0.5],[1,0.5]];portConstraint=eastwest;" vertex="1" parent="8"><mxGeometry y="130" width="140" height="26" as="geometry"/></mxCell><mxCell id="14" value="+ updatedAt: DateTime" style="text;strokeColor=none;fillColor=none;align=left;verticalAlign=top;spacingLeft=4;spacingRight=4;overflow=hidden;rotatable=0;points=[[0,0.5],[1,0.5]];portConstraint=eastwest;" vertex="1" parent="8"><mxGeometry y="156" width="140" height="26" as="geometry"/></mxCell><mxCell id="15" value="Image" style="swimlane;fontStyle=0;childLayout=stackLayout;horizontal=1;startSize=26;fillColor=none;horizontalStack=0;resizeParent=1;resizeParentMax=0;resizeLast=0;collapsible=1;marginBottom=0;" vertex="1" parent="1"><mxGeometry x="350" y="650" width="140" height="78" as="geometry"/></mxCell><mxCell id="16" value="+ id: int" style="text;strokeColor=none;fillColor=none;align=left;verticalAlign=top;spacingLeft=4;spacingRight=4;overflow=hidden;rotatable=0;points=[[0,0.5],[1,0.5]];portConstraint=eastwest;" vertex="1" parent="15"><mxGeometry y="26" width="140" height="26" as="geometry"/></mxCell><mxCell id="17" value="+ filename: string" style="text;strokeColor=none;fillColor=none;align=left;verticalAlign=top;spacingLeft=4;spacingRight=4;overflow=hidden;rotatable=0;points=[[0,0.5],[1,0.5]];portConstraint=eastwest;" vertex="1" parent="15"><mxGeometry y="52" width="140" height="26" as="geometry"/></mxCell><mxCell id="19" value="Video" style="swimlane;fontStyle=0;childLayout=stackLayout;horizontal=1;startSize=26;fillColor=none;horizontalStack=0;resizeParent=1;resizeParentMax=0;resizeLast=0;collapsible=1;marginBottom=0;" vertex="1" parent="1"><mxGeometry x="100" y="520" width="140" height="78" as="geometry"/></mxCell><mxCell id="20" value="+ id: int" style="text;strokeColor=none;fillColor=none;align=left;verticalAlign=top;spacingLeft=4;spacingRight=4;overflow=hidden;rotatable=0;points=[[0,0.5],[1,0.5]];portConstraint=eastwest;" vertex="1" parent="19"><mxGeometry y="26" width="140" height="26" as="geometry"/></mxCell><mxCell id="21" value="+ filename: string" style="text;strokeColor=none;fillColor=none;align=left;verticalAlign=top;spacingLeft=4;spacingRight=4;overflow=hidden;rotatable=0;points=[[0,0.5],[1,0.5]];portConstraint=eastwest;" vertex="1" parent="19"><mxGeometry y="52" width="140" height="26" as="geometry"/></mxCell><mxCell id="23" value="Category" style="swimlane;fontStyle=0;childLayout=stackLayout;horizontal=1;startSize=26;fillColor=none;horizontalStack=0;resizeParent=1;resizeParentMax=0;resizeLast=0;collapsible=1;marginBottom=0;" vertex="1" parent="1"><mxGeometry x="600" y="442" width="140" height="78" as="geometry"/></mxCell><mxCell id="24" value="+ id: int" style="text;strokeColor=none;fillColor=none;align=left;verticalAlign=top;spacingLeft=4;spacingRight=4;overflow=hidden;rotatable=0;points=[[0,0.5],[1,0.5]];portConstraint=eastwest;" vertex="1" parent="23"><mxGeometry y="26" width="140" height="26" as="geometry"/></mxCell><mxCell id="25" value="+ name: string" style="text;strokeColor=none;fillColor=none;align=left;verticalAlign=top;spacingLeft=4;spacingRight=4;overflow=hidden;rotatable=0;points=[[0,0.5],[1,0.5]];portConstraint=eastwest;" vertex="1" parent="23"><mxGeometry y="52" width="140" height="26" as="geometry"/></mxCell><mxCell id="31" value="Comment" style="swimlane;fontStyle=0;childLayout=stackLayout;horizontal=1;startSize=26;fillColor=none;horizontalStack=0;resizeParent=1;resizeParentMax=0;resizeLast=0;collapsible=1;marginBottom=0;" vertex="1" parent="1"><mxGeometry x="550" y="190" width="140" height="104" as="geometry"/></mxCell><mxCell id="32" value="+ id: int" style="text;strokeColor=none;fillColor=none;align=left;verticalAlign=top;spacingLeft=4;spacingRight=4;overflow=hidden;rotatable=0;points=[[0,0.5],[1,0.5]];portConstraint=eastwest;" vertex="1" parent="31"><mxGeometry y="26" width="140" height="26" as="geometry"/></mxCell><mxCell id="33" value="+ content: text" style="text;strokeColor=none;fillColor=none;align=left;verticalAlign=top;spacingLeft=4;spacingRight=4;overflow=hidden;rotatable=0;points=[[0,0.5],[1,0.5]];portConstraint=eastwest;" vertex="1" parent="31"><mxGeometry y="52" width="140" height="26" as="geometry"/></mxCell><mxCell id="34" value="+ createdAt: dateTime" style="text;strokeColor=none;fillColor=none;align=left;verticalAlign=top;spacingLeft=4;spacingRight=4;overflow=hidden;rotatable=0;points=[[0,0.5],[1,0.5]];portConstraint=eastwest;" vertex="1" parent="31"><mxGeometry y="78" width="140" height="26" as="geometry"/></mxCell><mxCell id="36" value="" style="endArrow=none;html=1;endSize=12;startArrow=none;startSize=14;startFill=0;rounded=0;entryX=0;entryY=0.5;entryDx=0;entryDy=0;endFill=0;strokeColor=default;" edge="1" parent="1" target="24"><mxGeometry x="0.2064" y="-23" relative="1" as="geometry"><mxPoint x="500" y="430" as="sourcePoint"/><mxPoint x="560" y="490" as="targetPoint"/><mxPoint as="offset"/></mxGeometry></mxCell><mxCell id="37" value="0..n" style="edgeLabel;resizable=0;html=1;align=left;verticalAlign=top;" connectable="0" vertex="1" parent="36"><mxGeometry x="-1" relative="1" as="geometry"/></mxCell><mxCell id="38" value="1" style="edgeLabel;resizable=0;html=1;align=right;verticalAlign=top;" connectable="0" vertex="1" parent="36"><mxGeometry x="1" relative="1" as="geometry"/></mxCell><mxCell id="39" value="" style="endArrow=none;html=1;endSize=12;startArrow=none;startSize=14;startFill=0;rounded=0;exitX=0.286;exitY=0;exitDx=0;exitDy=0;exitPerimeter=0;entryX=0;entryY=0.5;entryDx=0;entryDy=0;endFill=0;" edge="1" parent="1" source="8" target="34"><mxGeometry x="-0.125" y="10" relative="1" as="geometry"><mxPoint x="400" y="340" as="sourcePoint"/><mxPoint x="480" y="240" as="targetPoint"/><mxPoint as="offset"/></mxGeometry></mxCell><mxCell id="40" value="0..n" style="edgeLabel;resizable=0;html=1;align=left;verticalAlign=top;" connectable="0" vertex="1" parent="39"><mxGeometry x="-1" relative="1" as="geometry"><mxPoint x="10" y="-30" as="offset"/></mxGeometry></mxCell><mxCell id="41" value="1" style="edgeLabel;resizable=0;html=1;align=right;verticalAlign=top;" connectable="0" vertex="1" parent="39"><mxGeometry x="1" relative="1" as="geometry"/></mxCell><mxCell id="45" value="" style="endArrow=none;html=1;endSize=12;startArrow=none;startSize=14;startFill=0;rounded=0;entryX=-0.028;entryY=0.566;entryDx=0;entryDy=0;entryPerimeter=0;endFill=0;" edge="1" parent="1" target="32"><mxGeometry relative="1" as="geometry"><mxPoint x="270" y="241.66" as="sourcePoint"/><mxPoint x="510" y="230" as="targetPoint"/></mxGeometry></mxCell><mxCell id="46" value="0..n" style="edgeLabel;resizable=0;html=1;align=left;verticalAlign=top;" connectable="0" vertex="1" parent="45"><mxGeometry x="-1" relative="1" as="geometry"/></mxCell><mxCell id="47" value="1" style="edgeLabel;resizable=0;html=1;align=right;verticalAlign=top;" connectable="0" vertex="1" parent="45"><mxGeometry x="1" relative="1" as="geometry"><mxPoint x="-20" y="-10" as="offset"/></mxGeometry></mxCell><mxCell id="48" value="" style="endArrow=none;html=1;endSize=12;startArrow=none;startSize=14;startFill=0;rounded=0;exitX=0;exitY=0.5;exitDx=0;exitDy=0;entryX=0.443;entryY=-0.022;entryDx=0;entryDy=0;entryPerimeter=0;endFill=0;" edge="1" parent="1" source="11" target="19"><mxGeometry x="-0.1221" y="25" relative="1" as="geometry"><mxPoint x="70" y="460.66" as="sourcePoint"/><mxPoint x="230" y="460.66" as="targetPoint"/><mxPoint as="offset"/></mxGeometry></mxCell><mxCell id="49" value="0..n" style="edgeLabel;resizable=0;html=1;align=left;verticalAlign=top;" connectable="0" vertex="1" parent="48"><mxGeometry x="-1" relative="1" as="geometry"><mxPoint x="-30" as="offset"/></mxGeometry></mxCell><mxCell id="50" value="1" style="edgeLabel;resizable=0;html=1;align=right;verticalAlign=top;" connectable="0" vertex="1" parent="48"><mxGeometry x="1" relative="1" as="geometry"><mxPoint x="18" y="-28" as="offset"/></mxGeometry></mxCell><mxCell id="54" value="" style="endArrow=none;html=1;endSize=12;startArrow=none;startSize=14;startFill=0;rounded=0;entryX=0.5;entryY=0;entryDx=0;entryDy=0;endFill=0;strokeColor=default;" edge="1" parent="1" target="15"><mxGeometry x="0.2064" y="-23" relative="1" as="geometry"><mxPoint x="430" y="552" as="sourcePoint"/><mxPoint x="530" y="603" as="targetPoint"/><mxPoint as="offset"/></mxGeometry></mxCell><mxCell id="55" value="0..n" style="edgeLabel;resizable=0;html=1;align=left;verticalAlign=top;" connectable="0" vertex="1" parent="54"><mxGeometry x="-1" relative="1" as="geometry"/></mxCell><mxCell id="56" value="1" style="edgeLabel;resizable=0;html=1;align=right;verticalAlign=top;" connectable="0" vertex="1" parent="54"><mxGeometry x="1" relative="1" as="geometry"><mxPoint x="20" y="-30" as="offset"/></mxGeometry></mxCell></root></mxGraphModel></diagram></mxfile>